# MagicaVoxel @ Ephtracy

# material
mtllib 20x1x1_Line.mtl
usemtl palette

# normals
vn -1 0 0
vn 1 0 0
vn 0 -1 0
vn 0 1 0
vn 0 0 -1
vn 0 0 1

# texcoords
vt 0.306641 0.5

# verts
v -10 0 -1
v -10 1 -1
v -10 1 0
v -10 0 0
v 10 0 -1
v 10 1 -1
v 10 1 0
v 10 0 0
v -10 0 -1
v -10 0 0
v -9 0 0
v -9 0 -1
v -9 0 -1
v -9 0 0
v -8 0 0
v -8 0 -1
v -8 0 -1
v -8 0 0
v -7 0 0
v -7 0 -1
v -7 0 -1
v -7 0 0
v -6 0 0
v -6 0 -1
v -6 0 -1
v -6 0 0
v -5 0 0
v -5 0 -1
v -5 0 -1
v -5 0 0
v -4 0 0
v -4 0 -1
v -4 0 -1
v -4 0 0
v -3 0 0
v -3 0 -1
v -3 0 -1
v -3 0 0
v -2 0 0
v -2 0 -1
v -2 0 -1
v -2 0 0
v -1 0 0
v -1 0 -1
v -1 0 -1
v -1 0 0
v 0 0 0
v 0 0 -1
v 0 0 -1
v 0 0 0
v 1 0 0
v 1 0 -1
v 1 0 -1
v 1 0 0
v 2 0 0
v 2 0 -1
v 2 0 -1
v 2 0 0
v 3 0 0
v 3 0 -1
v 3 0 -1
v 3 0 0
v 4 0 0
v 4 0 -1
v 4 0 -1
v 4 0 0
v 5 0 0
v 5 0 -1
v 5 0 -1
v 5 0 0
v 6 0 0
v 6 0 -1
v 6 0 -1
v 6 0 0
v 7 0 0
v 7 0 -1
v 7 0 -1
v 7 0 0
v 8 0 0
v 8 0 -1
v 8 0 -1
v 8 0 0
v 9 0 0
v 9 0 -1
v 9 0 -1
v 9 0 0
v 10 0 0
v 10 0 -1
v -10 1 -1
v -10 1 0
v -9 1 0
v -9 1 -1
v -9 1 -1
v -9 1 0
v -8 1 0
v -8 1 -1
v -8 1 -1
v -8 1 0
v -7 1 0
v -7 1 -1
v -7 1 -1
v -7 1 0
v -6 1 0
v -6 1 -1
v -6 1 -1
v -6 1 0
v -5 1 0
v -5 1 -1
v -5 1 -1
v -5 1 0
v -4 1 0
v -4 1 -1
v -4 1 -1
v -4 1 0
v -3 1 0
v -3 1 -1
v -3 1 -1
v -3 1 0
v -2 1 0
v -2 1 -1
v -2 1 -1
v -2 1 0
v -1 1 0
v -1 1 -1
v -1 1 -1
v -1 1 0
v 0 1 0
v 0 1 -1
v 0 1 -1
v 0 1 0
v 1 1 0
v 1 1 -1
v 1 1 -1
v 1 1 0
v 2 1 0
v 2 1 -1
v 2 1 -1
v 2 1 0
v 3 1 0
v 3 1 -1
v 3 1 -1
v 3 1 0
v 4 1 0
v 4 1 -1
v 4 1 -1
v 4 1 0
v 5 1 0
v 5 1 -1
v 5 1 -1
v 5 1 0
v 6 1 0
v 6 1 -1
v 6 1 -1
v 6 1 0
v 7 1 0
v 7 1 -1
v 7 1 -1
v 7 1 0
v 8 1 0
v 8 1 -1
v 8 1 -1
v 8 1 0
v 9 1 0
v 9 1 -1
v 9 1 -1
v 9 1 0
v 10 1 0
v 10 1 -1
v -10 0 -1
v -9 0 -1
v -9 1 -1
v -10 1 -1
v -9 0 -1
v -8 0 -1
v -8 1 -1
v -9 1 -1
v -8 0 -1
v -7 0 -1
v -7 1 -1
v -8 1 -1
v -7 0 -1
v -6 0 -1
v -6 1 -1
v -7 1 -1
v -6 0 -1
v -5 0 -1
v -5 1 -1
v -6 1 -1
v -5 0 -1
v -4 0 -1
v -4 1 -1
v -5 1 -1
v -4 0 -1
v -3 0 -1
v -3 1 -1
v -4 1 -1
v -3 0 -1
v -2 0 -1
v -2 1 -1
v -3 1 -1
v -2 0 -1
v -1 0 -1
v -1 1 -1
v -2 1 -1
v -1 0 -1
v 0 0 -1
v 0 1 -1
v -1 1 -1
v 0 0 -1
v 1 0 -1
v 1 1 -1
v 0 1 -1
v 1 0 -1
v 2 0 -1
v 2 1 -1
v 1 1 -1
v 2 0 -1
v 3 0 -1
v 3 1 -1
v 2 1 -1
v 3 0 -1
v 4 0 -1
v 4 1 -1
v 3 1 -1
v 4 0 -1
v 5 0 -1
v 5 1 -1
v 4 1 -1
v 5 0 -1
v 6 0 -1
v 6 1 -1
v 5 1 -1
v 6 0 -1
v 7 0 -1
v 7 1 -1
v 6 1 -1
v 7 0 -1
v 8 0 -1
v 8 1 -1
v 7 1 -1
v 8 0 -1
v 9 0 -1
v 9 1 -1
v 8 1 -1
v 9 0 -1
v 10 0 -1
v 10 1 -1
v 9 1 -1
v -10 0 0
v -9 0 0
v -9 1 0
v -10 1 0
v -9 0 0
v -8 0 0
v -8 1 0
v -9 1 0
v -8 0 0
v -7 0 0
v -7 1 0
v -8 1 0
v -7 0 0
v -6 0 0
v -6 1 0
v -7 1 0
v -6 0 0
v -5 0 0
v -5 1 0
v -6 1 0
v -5 0 0
v -4 0 0
v -4 1 0
v -5 1 0
v -4 0 0
v -3 0 0
v -3 1 0
v -4 1 0
v -3 0 0
v -2 0 0
v -2 1 0
v -3 1 0
v -2 0 0
v -1 0 0
v -1 1 0
v -2 1 0
v -1 0 0
v 0 0 0
v 0 1 0
v -1 1 0
v 0 0 0
v 1 0 0
v 1 1 0
v 0 1 0
v 1 0 0
v 2 0 0
v 2 1 0
v 1 1 0
v 2 0 0
v 3 0 0
v 3 1 0
v 2 1 0
v 3 0 0
v 4 0 0
v 4 1 0
v 3 1 0
v 4 0 0
v 5 0 0
v 5 1 0
v 4 1 0
v 5 0 0
v 6 0 0
v 6 1 0
v 5 1 0
v 6 0 0
v 7 0 0
v 7 1 0
v 6 1 0
v 7 0 0
v 8 0 0
v 8 1 0
v 7 1 0
v 8 0 0
v 9 0 0
v 9 1 0
v 8 1 0
v 9 0 0
v 10 0 0
v 10 1 0
v 9 1 0

# faces
f 4/1/1 3/1/1 2/1/1 1/1/1
f 5/1/2 6/1/2 7/1/2 8/1/2
f 12/1/3 11/1/3 10/1/3 9/1/3
f 16/1/3 15/1/3 14/1/3 13/1/3
f 20/1/3 19/1/3 18/1/3 17/1/3
f 24/1/3 23/1/3 22/1/3 21/1/3
f 28/1/3 27/1/3 26/1/3 25/1/3
f 32/1/3 31/1/3 30/1/3 29/1/3
f 36/1/3 35/1/3 34/1/3 33/1/3
f 40/1/3 39/1/3 38/1/3 37/1/3
f 44/1/3 43/1/3 42/1/3 41/1/3
f 48/1/3 47/1/3 46/1/3 45/1/3
f 52/1/3 51/1/3 50/1/3 49/1/3
f 56/1/3 55/1/3 54/1/3 53/1/3
f 60/1/3 59/1/3 58/1/3 57/1/3
f 64/1/3 63/1/3 62/1/3 61/1/3
f 68/1/3 67/1/3 66/1/3 65/1/3
f 72/1/3 71/1/3 70/1/3 69/1/3
f 76/1/3 75/1/3 74/1/3 73/1/3
f 80/1/3 79/1/3 78/1/3 77/1/3
f 84/1/3 83/1/3 82/1/3 81/1/3
f 88/1/3 87/1/3 86/1/3 85/1/3
f 89/1/4 90/1/4 91/1/4 92/1/4
f 93/1/4 94/1/4 95/1/4 96/1/4
f 97/1/4 98/1/4 99/1/4 100/1/4
f 101/1/4 102/1/4 103/1/4 104/1/4
f 105/1/4 106/1/4 107/1/4 108/1/4
f 109/1/4 110/1/4 111/1/4 112/1/4
f 113/1/4 114/1/4 115/1/4 116/1/4
f 117/1/4 118/1/4 119/1/4 120/1/4
f 121/1/4 122/1/4 123/1/4 124/1/4
f 125/1/4 126/1/4 127/1/4 128/1/4
f 129/1/4 130/1/4 131/1/4 132/1/4
f 133/1/4 134/1/4 135/1/4 136/1/4
f 137/1/4 138/1/4 139/1/4 140/1/4
f 141/1/4 142/1/4 143/1/4 144/1/4
f 145/1/4 146/1/4 147/1/4 148/1/4
f 149/1/4 150/1/4 151/1/4 152/1/4
f 153/1/4 154/1/4 155/1/4 156/1/4
f 157/1/4 158/1/4 159/1/4 160/1/4
f 161/1/4 162/1/4 163/1/4 164/1/4
f 165/1/4 166/1/4 167/1/4 168/1/4
f 172/1/5 171/1/5 170/1/5 169/1/5
f 176/1/5 175/1/5 174/1/5 173/1/5
f 180/1/5 179/1/5 178/1/5 177/1/5
f 184/1/5 183/1/5 182/1/5 181/1/5
f 188/1/5 187/1/5 186/1/5 185/1/5
f 192/1/5 191/1/5 190/1/5 189/1/5
f 196/1/5 195/1/5 194/1/5 193/1/5
f 200/1/5 199/1/5 198/1/5 197/1/5
f 204/1/5 203/1/5 202/1/5 201/1/5
f 208/1/5 207/1/5 206/1/5 205/1/5
f 212/1/5 211/1/5 210/1/5 209/1/5
f 216/1/5 215/1/5 214/1/5 213/1/5
f 220/1/5 219/1/5 218/1/5 217/1/5
f 224/1/5 223/1/5 222/1/5 221/1/5
f 228/1/5 227/1/5 226/1/5 225/1/5
f 232/1/5 231/1/5 230/1/5 229/1/5
f 236/1/5 235/1/5 234/1/5 233/1/5
f 240/1/5 239/1/5 238/1/5 237/1/5
f 244/1/5 243/1/5 242/1/5 241/1/5
f 248/1/5 247/1/5 246/1/5 245/1/5
f 249/1/6 250/1/6 251/1/6 252/1/6
f 253/1/6 254/1/6 255/1/6 256/1/6
f 257/1/6 258/1/6 259/1/6 260/1/6
f 261/1/6 262/1/6 263/1/6 264/1/6
f 265/1/6 266/1/6 267/1/6 268/1/6
f 269/1/6 270/1/6 271/1/6 272/1/6
f 273/1/6 274/1/6 275/1/6 276/1/6
f 277/1/6 278/1/6 279/1/6 280/1/6
f 281/1/6 282/1/6 283/1/6 284/1/6
f 285/1/6 286/1/6 287/1/6 288/1/6
f 289/1/6 290/1/6 291/1/6 292/1/6
f 293/1/6 294/1/6 295/1/6 296/1/6
f 297/1/6 298/1/6 299/1/6 300/1/6
f 301/1/6 302/1/6 303/1/6 304/1/6
f 305/1/6 306/1/6 307/1/6 308/1/6
f 309/1/6 310/1/6 311/1/6 312/1/6
f 313/1/6 314/1/6 315/1/6 316/1/6
f 317/1/6 318/1/6 319/1/6 320/1/6
f 321/1/6 322/1/6 323/1/6 324/1/6
f 325/1/6 326/1/6 327/1/6 328/1/6
