# MagicaVoxel @ Ephtracy

# material
mtllib test_solar_array.mtl
usemtl palette

# normals
vn -1 0 0
vn 1 0 0
vn 0 -1 0
vn 0 1 0
vn 0 0 -1
vn 0 0 1

# texcoords
vt 0.306641 0.5
vt 0.947266 0.5

# verts
v -2 -2 -2
v -2 -1 -2
v -2 -1 -1
v -2 -2 -1
v -2 -1 -2
v -2 0 -2
v -2 0 -1
v -2 -1 -1
v -2 0 -2
v -2 1 -2
v -2 1 -1
v -2 0 -1
v -2 1 -2
v -2 2 -2
v -2 2 -1
v -2 1 -1
v -2 -2 -1
v -2 -1 -1
v -2 -1 0
v -2 -2 0
v -2 -1 -1
v -2 0 -1
v -2 0 0
v -2 -1 0
v -2 0 -1
v -2 1 -1
v -2 1 0
v -2 0 0
v -2 1 -1
v -2 2 -1
v -2 2 0
v -2 1 0
v -2 -2 0
v -2 -1 0
v -2 -1 1
v -2 -2 1
v -2 -1 0
v -2 0 0
v -2 0 1
v -2 -1 1
v -2 0 0
v -2 1 0
v -2 1 1
v -2 0 1
v -2 1 0
v -2 2 0
v -2 2 1
v -2 1 1
v -2 -2 1
v -2 -1 1
v -2 -1 2
v -2 -2 2
v -2 -1 1
v -2 0 1
v -2 0 2
v -2 -1 2
v -2 0 1
v -2 1 1
v -2 1 2
v -2 0 2
v -2 1 1
v -2 2 1
v -2 2 2
v -2 1 2
v 2 -2 -2
v 2 -1 -2
v 2 -1 -1
v 2 -2 -1
v 2 -1 -2
v 2 0 -2
v 2 0 -1
v 2 -1 -1
v 2 0 -2
v 2 1 -2
v 2 1 -1
v 2 0 -1
v 2 1 -2
v 2 2 -2
v 2 2 -1
v 2 1 -1
v 2 -2 -1
v 2 -1 -1
v 2 -1 0
v 2 -2 0
v 2 -1 -1
v 2 0 -1
v 2 0 0
v 2 -1 0
v 2 0 -1
v 2 1 -1
v 2 1 0
v 2 0 0
v 2 1 -1
v 2 2 -1
v 2 2 0
v 2 1 0
v 2 -2 0
v 2 -1 0
v 2 -1 1
v 2 -2 1
v 2 -1 0
v 2 0 0
v 2 0 1
v 2 -1 1
v 2 0 0
v 2 1 0
v 2 1 1
v 2 0 1
v 2 1 0
v 2 2 0
v 2 2 1
v 2 1 1
v 2 -2 1
v 2 -1 1
v 2 -1 2
v 2 -2 2
v 2 -1 1
v 2 0 1
v 2 0 2
v 2 -1 2
v 2 0 1
v 2 1 1
v 2 1 2
v 2 0 2
v 2 1 1
v 2 2 1
v 2 2 2
v 2 1 2
v -2 -2 -2
v -2 -2 -1
v -1 -2 -1
v -1 -2 -2
v -2 -2 -1
v -2 -2 0
v -1 -2 0
v -1 -2 -1
v -2 -2 0
v -2 -2 1
v -1 -2 1
v -1 -2 0
v -2 -2 1
v -2 -2 2
v -1 -2 2
v -1 -2 1
v -1 -2 -2
v -1 -2 -1
v 0 -2 -1
v 0 -2 -2
v -1 -2 -1
v -1 -2 0
v 0 -2 0
v 0 -2 -1
v -1 -2 0
v -1 -2 1
v 0 -2 1
v 0 -2 0
v -1 -2 1
v -1 -2 2
v 0 -2 2
v 0 -2 1
v 0 -2 -2
v 0 -2 -1
v 1 -2 -1
v 1 -2 -2
v 0 -2 -1
v 0 -2 0
v 1 -2 0
v 1 -2 -1
v 0 -2 0
v 0 -2 1
v 1 -2 1
v 1 -2 0
v 0 -2 1
v 0 -2 2
v 1 -2 2
v 1 -2 1
v 1 -2 -2
v 1 -2 -1
v 2 -2 -1
v 2 -2 -2
v 1 -2 -1
v 1 -2 0
v 2 -2 0
v 2 -2 -1
v 1 -2 0
v 1 -2 1
v 2 -2 1
v 2 -2 0
v 1 -2 1
v 1 -2 2
v 2 -2 2
v 2 -2 1
v -2 2 -2
v -2 2 -1
v -1 2 -1
v -1 2 -2
v -2 2 -1
v -2 2 0
v -1 2 0
v -1 2 -1
v -2 2 0
v -2 2 1
v -1 2 1
v -1 2 0
v -2 2 1
v -2 2 2
v -1 2 2
v -1 2 1
v -1 2 -2
v -1 2 -1
v 0 2 -1
v 0 2 -2
v -1 2 -1
v -1 2 0
v 0 2 0
v 0 2 -1
v -1 2 0
v -1 2 1
v 0 2 1
v 0 2 0
v -1 2 1
v -1 2 2
v 0 2 2
v 0 2 1
v 0 2 -2
v 0 2 -1
v 1 2 -1
v 1 2 -2
v 0 2 -1
v 0 2 0
v 1 2 0
v 1 2 -1
v 0 2 0
v 0 2 1
v 1 2 1
v 1 2 0
v 0 2 1
v 0 2 2
v 1 2 2
v 1 2 1
v 1 2 -2
v 1 2 -1
v 2 2 -1
v 2 2 -2
v 1 2 -1
v 1 2 0
v 2 2 0
v 2 2 -1
v 1 2 0
v 1 2 1
v 2 2 1
v 2 2 0
v 1 2 1
v 1 2 2
v 2 2 2
v 2 2 1
v -2 -2 -2
v -1 -2 -2
v -1 -1 -2
v -2 -1 -2
v -1 -2 -2
v 0 -2 -2
v 0 -1 -2
v -1 -1 -2
v 0 -2 -2
v 1 -2 -2
v 1 -1 -2
v 0 -1 -2
v 1 -2 -2
v 2 -2 -2
v 2 -1 -2
v 1 -1 -2
v -2 -1 -2
v -1 -1 -2
v -1 0 -2
v -2 0 -2
v -1 -1 -2
v 0 -1 -2
v 0 0 -2
v -1 0 -2
v 0 -1 -2
v 1 -1 -2
v 1 0 -2
v 0 0 -2
v 1 -1 -2
v 2 -1 -2
v 2 0 -2
v 1 0 -2
v -2 0 -2
v -1 0 -2
v -1 1 -2
v -2 1 -2
v -1 0 -2
v 0 0 -2
v 0 1 -2
v -1 1 -2
v 0 0 -2
v 1 0 -2
v 1 1 -2
v 0 1 -2
v 1 0 -2
v 2 0 -2
v 2 1 -2
v 1 1 -2
v -2 1 -2
v -1 1 -2
v -1 2 -2
v -2 2 -2
v -1 1 -2
v 0 1 -2
v 0 2 -2
v -1 2 -2
v 0 1 -2
v 1 1 -2
v 1 2 -2
v 0 2 -2
v 1 1 -2
v 2 1 -2
v 2 2 -2
v 1 2 -2
v -2 -2 2
v -1 -2 2
v -1 -1 2
v -2 -1 2
v -1 -2 2
v 0 -2 2
v 0 -1 2
v -1 -1 2
v 0 -2 2
v 1 -2 2
v 1 -1 2
v 0 -1 2
v 1 -2 2
v 2 -2 2
v 2 -1 2
v 1 -1 2
v -2 -1 2
v -1 -1 2
v -1 0 2
v -2 0 2
v -1 -1 2
v 0 -1 2
v 0 0 2
v -1 0 2
v 0 -1 2
v 1 -1 2
v 1 0 2
v 0 0 2
v 1 -1 2
v 2 -1 2
v 2 0 2
v 1 0 2
v -2 0 2
v -1 0 2
v -1 1 2
v -2 1 2
v -1 0 2
v 0 0 2
v 0 1 2
v -1 1 2
v 0 0 2
v 1 0 2
v 1 1 2
v 0 1 2
v 1 0 2
v 2 0 2
v 2 1 2
v 1 1 2
v -2 1 2
v -1 1 2
v -1 2 2
v -2 2 2
v -1 1 2
v 0 1 2
v 0 2 2
v -1 2 2
v 0 1 2
v 1 1 2
v 1 2 2
v 0 2 2
v 1 1 2
v 2 1 2
v 2 2 2
v 1 2 2

# faces
f 4/1/1 3/1/1 2/1/1 1/1/1
f 8/1/1 7/1/1 6/1/1 5/1/1
f 12/1/1 11/1/1 10/1/1 9/1/1
f 16/1/1 15/1/1 14/1/1 13/1/1
f 20/1/1 19/1/1 18/1/1 17/1/1
f 24/2/1 23/2/1 22/2/1 21/2/1
f 28/2/1 27/2/1 26/2/1 25/2/1
f 32/1/1 31/1/1 30/1/1 29/1/1
f 36/1/1 35/1/1 34/1/1 33/1/1
f 40/2/1 39/2/1 38/2/1 37/2/1
f 44/2/1 43/2/1 42/2/1 41/2/1
f 48/1/1 47/1/1 46/1/1 45/1/1
f 52/1/1 51/1/1 50/1/1 49/1/1
f 56/1/1 55/1/1 54/1/1 53/1/1
f 60/1/1 59/1/1 58/1/1 57/1/1
f 64/1/1 63/1/1 62/1/1 61/1/1
f 65/1/2 66/1/2 67/1/2 68/1/2
f 69/1/2 70/1/2 71/1/2 72/1/2
f 73/1/2 74/1/2 75/1/2 76/1/2
f 77/1/2 78/1/2 79/1/2 80/1/2
f 81/1/2 82/1/2 83/1/2 84/1/2
f 85/1/2 86/1/2 87/1/2 88/1/2
f 89/1/2 90/1/2 91/1/2 92/1/2
f 93/1/2 94/1/2 95/1/2 96/1/2
f 97/1/2 98/1/2 99/1/2 100/1/2
f 101/1/2 102/1/2 103/1/2 104/1/2
f 105/1/2 106/1/2 107/1/2 108/1/2
f 109/1/2 110/1/2 111/1/2 112/1/2
f 113/1/2 114/1/2 115/1/2 116/1/2
f 117/1/2 118/1/2 119/1/2 120/1/2
f 121/1/2 122/1/2 123/1/2 124/1/2
f 125/1/2 126/1/2 127/1/2 128/1/2
f 132/1/3 131/1/3 130/1/3 129/1/3
f 136/1/3 135/1/3 134/1/3 133/1/3
f 140/1/3 139/1/3 138/1/3 137/1/3
f 144/1/3 143/1/3 142/1/3 141/1/3
f 148/1/3 147/1/3 146/1/3 145/1/3
f 152/2/3 151/2/3 150/2/3 149/2/3
f 156/2/3 155/2/3 154/2/3 153/2/3
f 160/1/3 159/1/3 158/1/3 157/1/3
f 164/1/3 163/1/3 162/1/3 161/1/3
f 168/2/3 167/2/3 166/2/3 165/2/3
f 172/2/3 171/2/3 170/2/3 169/2/3
f 176/1/3 175/1/3 174/1/3 173/1/3
f 180/1/3 179/1/3 178/1/3 177/1/3
f 184/1/3 183/1/3 182/1/3 181/1/3
f 188/1/3 187/1/3 186/1/3 185/1/3
f 192/1/3 191/1/3 190/1/3 189/1/3
f 193/1/4 194/1/4 195/1/4 196/1/4
f 197/1/4 198/1/4 199/1/4 200/1/4
f 201/1/4 202/1/4 203/1/4 204/1/4
f 205/1/4 206/1/4 207/1/4 208/1/4
f 209/1/4 210/1/4 211/1/4 212/1/4
f 213/2/4 214/2/4 215/2/4 216/2/4
f 217/2/4 218/2/4 219/2/4 220/2/4
f 221/1/4 222/1/4 223/1/4 224/1/4
f 225/1/4 226/1/4 227/1/4 228/1/4
f 229/2/4 230/2/4 231/2/4 232/2/4
f 233/2/4 234/2/4 235/2/4 236/2/4
f 237/1/4 238/1/4 239/1/4 240/1/4
f 241/1/4 242/1/4 243/1/4 244/1/4
f 245/1/4 246/1/4 247/1/4 248/1/4
f 249/1/4 250/1/4 251/1/4 252/1/4
f 253/1/4 254/1/4 255/1/4 256/1/4
f 260/1/5 259/1/5 258/1/5 257/1/5
f 264/1/5 263/1/5 262/1/5 261/1/5
f 268/1/5 267/1/5 266/1/5 265/1/5
f 272/1/5 271/1/5 270/1/5 269/1/5
f 276/1/5 275/1/5 274/1/5 273/1/5
f 280/2/5 279/2/5 278/2/5 277/2/5
f 284/2/5 283/2/5 282/2/5 281/2/5
f 288/1/5 287/1/5 286/1/5 285/1/5
f 292/1/5 291/1/5 290/1/5 289/1/5
f 296/2/5 295/2/5 294/2/5 293/2/5
f 300/2/5 299/2/5 298/2/5 297/2/5
f 304/1/5 303/1/5 302/1/5 301/1/5
f 308/1/5 307/1/5 306/1/5 305/1/5
f 312/1/5 311/1/5 310/1/5 309/1/5
f 316/1/5 315/1/5 314/1/5 313/1/5
f 320/1/5 319/1/5 318/1/5 317/1/5
f 321/1/6 322/1/6 323/1/6 324/1/6
f 325/1/6 326/1/6 327/1/6 328/1/6
f 329/1/6 330/1/6 331/1/6 332/1/6
f 333/1/6 334/1/6 335/1/6 336/1/6
f 337/1/6 338/1/6 339/1/6 340/1/6
f 341/2/6 342/2/6 343/2/6 344/2/6
f 345/2/6 346/2/6 347/2/6 348/2/6
f 349/1/6 350/1/6 351/1/6 352/1/6
f 353/1/6 354/1/6 355/1/6 356/1/6
f 357/2/6 358/2/6 359/2/6 360/2/6
f 361/2/6 362/2/6 363/2/6 364/2/6
f 365/1/6 366/1/6 367/1/6 368/1/6
f 369/1/6 370/1/6 371/1/6 372/1/6
f 373/1/6 374/1/6 375/1/6 376/1/6
f 377/1/6 378/1/6 379/1/6 380/1/6
f 381/1/6 382/1/6 383/1/6 384/1/6
